# AST/ASF file generated using VICON BodyLanguage
# -----------------------------------------------
:version 1.10
:name VICON
:units
  mass 1.0
  length 0.45
  angle deg
:documentation
   .ast/.asf automatically generated from VICON data using
   VICON BodyBuilder and BodyLanguage model FoxedUp or BRILLIANT.MOD
:root
   order TX TY TZ RX RY RZ
   axis XYZ
   position 0 0 0  
   orientation 0 0 0 
:bonedata
  begin
     id 1 
     name lhipjoint
     direction 0.567149 -0.783011 0.255413 
     length 2.28399 
     axis 0 0 0  XYZ
  end
  begin
     id 2 
     name lfemur
     direction 0.34202 -0.939693 0  
     length 7.34031  
     axis 0 0 20  XYZ
    dof rx ry rz
    limits (-160.0 20.0)
           (-70.0 70.0)
           (-60.0 70.0)
  end
  begin
     id 3 
     name ltibia
     direction 0.34202 -0.939693 0   
     length 6.9833   
     axis 0 0 20   XYZ
    dof rx
    limits (-10.0 170.0)
  end
  begin
     id 4 
     name lfoot
     direction 0.136498 -0.375025 0.91691   
     length 2.33665   
     axis -90 7.62852e-016 20   XYZ
    dof rx rz
    limits (-45.0 90.0)
           (-70.0 20.0)
  end
  begin
     id 5 
     name ltoes
     direction 1.5367e-011 -4.21617e-011 1   
     length 1.15039   
     axis -90 7.62852e-016 20   XYZ
    dof rx
    limits (-90.0 20.0)
  end
  begin
     id 6 
     name rhipjoint
     direction -0.602854 -0.758518 0.247423   
     length 2.35775  
     axis 0 0 0  XYZ 
  end
  begin
     id 7 
     name rfemur
     direction -0.34202 -0.939693 0   
     length 7.43932   
     axis 0 0 -20   XYZ
    dof rx ry rz
    limits (-160.0 20.0)
           (-70.0 70.0)
           (-70.0 60.0)
  end
  begin
     id 8 
     name rtibia
     direction -0.34202 -0.939693 0   
     length 7.11893   
     axis 0 0 -20   XYZ
    dof rx
    limits (-10.0 170.0)
 end
 begin
     id 9 
     name rfoot
     direction -0.131771 -0.362037 0.922803   
     length 2.53019  
     axis -90 -7.62852e-016 -20   XYZ
    dof rx rz
    limits (-45.0 90.0)
           (-20.0 70.0)
  end
  begin
     id 10 
     name rtoes
     direction -1.53733e-011 -4.21932e-011 1   
     length 1.24596   
     axis -90 -7.62852e-016 -20   XYZ
    dof rx
    limits (-90.0 20.0)
  end
  begin
     id 11 
     name lowerback
     direction 0.0235427 0.999023 -0.0374125   
     length 2.21768   
     axis 0 0 0   XYZ
    dof rx ry rz
    limits (-20.0 45.0)
           (-30.0 30.0)
           (-30.0 30.0)
  end
  begin
     id 12 
     name upperback
     direction 0.0302156 0.996818 -0.073759   
     length 2.20352   
     axis 0 0 0   XYZ
    dof rx ry rz
    limits (-20.0 45.0)
           (-30.0 30.0)
           (-30.0 30.0)
  end
  begin
     id 13 
     name thorax
     direction 0.0187169 0.998235 -0.0563532   
     length 2.22103   
     axis 0 0 0   XYZ
    dof rx ry rz
    limits (-20.0 45.0)
           (-30.0 30.0)
           (-30.0 30.0)
  end
  begin
     id 14 
     name lowerneck
     direction -0.119528 0.987423 0.103481   
     length 1.72948   
     axis 0 0 0   XYZ
    dof rx ry rz
    limits (-20.0 45.0)
           (-30.0 30.0)
           (-30.0 30.0)
  end
  begin
     id 15 
     name upperneck
     direction 0.248049 0.963095 -0.104496   
     length 1.74979   
     axis 0 0 0   XYZ
    dof rx ry rz
    limits (-20.0 45.0)
           (-30.0 30.0)
           (-30.0 30.0)
  end
  begin
     id 16
     name head
     direction 0.0903589 0.994284 -0.056876  
     length 1.78268  
     axis 0 0 0   XYZ
    dof rx ry rz
    limits (-20.0 45.0)
           (-30.0 30.0)
           (-30.0 30.0)
  end
  begin
     id 17 
     name lclavicle
     direction 0.946008 0.242039 -0.215608  
     length 3.80783  
     axis 0 0 0   XYZ
    dof ry rz
    limits (-20.0 10.0)
           (0.0 20.0)
  end
  begin
     id 18 
     name lhumerus
     direction 1 -4.48991e-011 -2.25695e-027   
     length 4.83125   
     axis 180 -30 -90   XYZ
    dof rx ry rz
    limits (-60.0 90.0)
           (-90.0 90.0)
           (-90.0 90.0)
  end
  begin
     id 19
     name lradius
     direction 0.999991 0.00366712 -0.00211721   
     length 3.00391   
     axis 180 -30 -90   XYZ
    dof rx
    limits (-10.0 170.0)
  end
  begin
     id 20
     name lwrist
     direction 0.999991 0.00393016 -0.00141978   
     length 1.50195   
     axis -1.00488e-014 90 90   XYZ
    dof ry
    limits (-180.0 0.0)
 end
  begin
     id 21 
     name lhand
     direction 1 -4.49123e-011 2.72098e-026   
     length 1.2717   
     axis -1.73687e-014 90 90   XYZ
    dof rx rz
    limits (-90.0 90.0)
           (-45.0 45.0)
  end
  begin
     id 22 
     name lfingers
     direction 1 -4.48678e-011 5.4479e-026   
     length 1.02528   
     axis -3.47372e-014 90 90   XYZ
    dof rx
    limits (0.0 90.0)
  end
  begin
     id 23
     name lthumb
     direction 0.707107 -6.34851e-011 0.707107   
     length 1.4721   
     axis -90 45 -1.62303e-014   XYZ
    dof rx rz
    limits (-45.0 45.0)
           (-45.0 45.0)
  end
  begin
     id 24 
     name rclavicle
     direction -0.981723 0.189447 -0.0181673   
     length 3.74989  
     axis 0 0 0   XYZ 
    dof ry rz
    limits (-10.0 20.0)
           (-20.0 0.0)
  end
  begin
     id 25 
     name rhumerus
     direction -1 -4.48985e-011 2.38206e-027  
     length 4.61118   
     axis 180 30 90   XYZ
    dof rx ry rz
    limits (-90.0 60.0)
           (-90.0 90.0)
           (-90.0 90.0)
  end
  begin
     id 26 
     name rradius
     direction -1 -4.48977e-011 7.41019e-027   
     length 2.91491   
     axis 180 30 90   XYZ
    dof rx
    limits (-10.0 170.0)
  end
  begin
     id 27 
     name rwrist
     direction -1 -4.48549e-011 1.3624e-026   
     length 1.45745   
     axis -1.00488e-014 -90 -90   XYZ
    dof ry
    limits (-180.0 0.0)
  end
  begin
     id 28
     name rhand
     direction -1 -4.49107e-011 2.72109e-026   
     length 1.30769   
     axis -1.73687e-014 -90 -90   XYZ
    dof rx rz
    limits (-90.0 90.0)
           (-45.0 45.0)
  end
  begin
     id 29
     name rfingers
     direction -1 -4.48919e-011 5.44468e-026   
     length 1.05429   
     axis -3.47372e-014 -90 -90   XYZ
    dof rx
    limits (0.0 90.0)
  end
  begin
     id 30
     name rthumb
     direction -0.707107 -6.35315e-011 0.707107   
     length 1.51376   
     axis -90 -45 1.62303e-014   XYZ
    dof rx rz
    limits (-45.0 45.0)
           (-45.0 45.0)
  end
:hierarchy
  begin
    root lhipjoint rhipjoint lowerback
    lhipjoint lfemur
    lfemur ltibia
    ltibia lfoot
    lfoot ltoes
    rhipjoint rfemur
    rfemur rtibia
    rtibia rfoot
    rfoot rtoes
    lowerback upperback
    upperback thorax
    thorax lowerneck lclavicle rclavicle
    lowerneck upperneck
    upperneck head
    lclavicle lhumerus
    lhumerus lradius
    lradius lwrist
    lwrist lhand lthumb
    lhand lfingers
    rclavicle rhumerus
    rhumerus rradius
    rradius rwrist
    rwrist rhand rthumb
    rhand rfingers
  end

#!OML:ASF X:\für Bonn\!DataBase\2005_08_11_Bastian_Final\c3d\Bastian.ASF
:FULLY-SPECIFIED
:DEGREES
1
root 2.13055 17.2623 22.1926 -551.91 -51.9598 -180.74
lowerback 10.5364 -1.86414 1.3264
upperback 9.29299 -3.13911 -1.05119
thorax 3.69479 -1.80318 -1.63208
lowerneck 10.498 -16.3052 -14.6879
upperneck -7.21741 -22.9799 21.7535
head 0.520499 -12.2273 8.67165
rclavicle 1.54307e-014 -2.98177e-015
rhumerus -33.0478 7.27403 -93.3422
rradius 40.3366
rwrist -5.33934
rhand -14.8116 5.5967
rfingers 7.12502
rthumb 11.3464 -24.0764
lclavicle 1.54307e-014 -2.98177e-015
lhumerus -31.985 24.1113 73.8743
lradius 5.53078
lwrist 0.295145
lhand -9.9478 -6.87975
lfingers 7.12502
lthumb 16.0339 22.4768
rfemur -0.213552 1.36639 26.2754
rtibia 34.5768
rfoot -14.6203 -9.44485
rtoes 3.12919
lfemur 3.67533 -11.8255 -15.7947
ltibia 23.4325
lfoot -7.95914 -11.8724
ltoes -19.1076
2
root 2.08293 17.2575 22.2157 -551.948 -51.0731 -180.686
lowerback 10.628 -1.79679 1.29628
upperback 9.31051 -3.0627 -1.04254
thorax 3.66838 -1.77189 -1.60876
lowerneck 10.3405 -16.1583 -14.5792
upperneck -7.24249 -22.7465 21.695
head 0.476035 -12.1057 8.65356
rclavicle -1.66482e-014 -1.72943e-014
rhumerus -33.1358 7.27675 -93.3158
rradius 40.1448
rwrist -5.41946
rhand -14.8932 5.64196
rfingers 7.12502
rthumb 11.2678 -24.0354
lclavicle -1.66482e-014 -1.72943e-014
lhumerus -31.9544 23.7567 74.0769
lradius 5.88833
lwrist 0.234716
lhand -9.81723 -7.09078
lfingers 7.12502
lthumb 16.1596 22.2556
rfemur -0.268282 1.54688 26.1773
rtibia 34.7673
rfoot -14.7156 -8.81199
rtoes 2.5522
lfemur 3.83655 -11.6664 -15.8168
ltibia 23.0325
lfoot -8.03601 -11.9852
ltoes -20.3967
3
root 2.03736 17.253 22.2377 -551.993 -50.2266 -180.627
lowerback 10.7169 -1.7394 1.2512
upperback 9.34183 -3.00245 -1.03888
thorax 3.65794 -1.74986 -1.58186
lowerneck 10.0986 -16.0205 -14.4537
upperneck -7.18189 -22.5267 21.6142
head 0.46768 -11.9847 8.61145
rclavicle -4.0403e-014 1.19271e-015
rhumerus -33.2103 7.25014 -93.2873
rradius 39.9626
rwrist -5.50902
rhand -14.9597 5.65275
rfingers 7.12502
rthumb 11.2036 -24.0281
lclavicle -4.0403e-014 1.19271e-015
lhumerus -31.8461 23.3993 74.2689
lradius 6.23894
lwrist 0.255306
lhand -9.72661 -7.32024
lfingers 7.12502
lthumb 16.2469 22.019
rfemur -0.320236 1.73478 26.097
rtibia 34.9731
rfoot -14.8333 -8.24875
rtoes 1.72787
lfemur 3.98004 -11.1827 -15.7972
ltibia 22.765
lfoot -8.28768 -12.2081
ltoes -22.5909
4
root 1.99211 17.2495 22.2587 -551.993 -49.3881 -180.623
lowerback 10.7906 -1.6801 1.14108
upperback 9.37261 -2.9446 -1.02501
thorax 3.65814 -1.7326 -1.50863
lowerneck 9.94785 -15.8609 -14.3668
upperneck -7.23973 -22.2754 21.5699
head 0.414759 -11.8556 8.60362
rclavicle 3.10601e-014 -2.19657e-014
rhumerus -33.2809 7.18187 -93.2086
rradius 39.7338
rwrist -5.53434
rhand -15.0057 5.68454
rfingers 7.12502
rthumb 11.1593 -23.9987
lclavicle 3.10601e-014 -2.19657e-014
lhumerus -31.7231 23.0738 74.4909
lradius 6.58261
lwrist 0.245457
lhand -9.71857 -7.58859
lfingers 7.12502
lthumb 16.2546 21.75
rfemur -0.38898 1.91459 25.9704
rtibia 35.1944
rfoot -14.9685 -7.65639
rtoes 1.18595
lfemur 4.12501 -10.5746 -15.8176
ltibia 22.6199
lfoot -8.67835 -12.3519
ltoes -24.8385
5
root 1.94655 17.2464 22.2793 -551.991 -48.5817 -180.615
lowerback 10.8373 -1.63631 1.06214
upperback 9.4139 -2.90565 -1.04294
thorax 3.68064 -1.72223 -1.48601
lowerneck 9.76317 -15.7014 -14.2796
upperneck -7.23429 -22.0318 21.5461
head 0.389684 -11.7291 8.59344
rclavicle 5.10877e-014 7.95139e-015
rhumerus -33.3523 7.12847 -93.1835
rradius 39.5279
rwrist -5.58813
rhand -15.0915 5.64691
rfingers 7.12502
rthumb 11.0765 -24.0408
lclavicle 5.10877e-014 7.95139e-015
lhumerus -31.6228 22.7014 74.6143
lradius 7.03877
lwrist 0.279717
lhand -9.63892 -7.76397
lfingers 7.12502
lthumb 16.3313 21.5684
rfemur -0.473791 2.14436 25.8605
rtibia 35.4297
rfoot -15.107 -7.1391
rtoes 0.675147
lfemur 4.27398 -9.8654 -15.8321
ltibia 22.5532
lfoot -9.0318 -12.3764
ltoes -26.524
6
root 1.90339 17.242 22.2985 -551.981 -47.79 -180.604
lowerback 10.8668 -1.59143 0.944421
upperback 9.46235 -2.86922 -1.04602
thorax 3.7223 -1.71578 -1.42719
lowerneck 9.55854 -15.5435 -14.206
upperneck -7.21548 -21.7898 21.4933
head 0.370132 -11.6 8.57322
rclavicle 1.92821e-014 2.78299e-015
rhumerus -33.3909 7.00043 -93.0975
rradius 39.2812
rwrist -5.61558
rhand -15.1225 5.62662
rfingers 7.12502
rthumb 11.0466 -24.0627
lclavicle 1.92821e-014 2.78299e-015
lhumerus -31.4687 22.3429 74.7554
lradius 7.50535
lwrist 0.373849
lhand -9.62284 -7.8349
lfingers 7.12502
lthumb 16.3468 21.4962
rfemur -0.588695 2.41251 25.7744
rtibia 35.6933
rfoot -15.2577 -6.69425
rtoes 0.217785
lfemur 4.43686 -9.16409 -15.822
ltibia 22.5186
lfoot -9.13124 -12.2653
ltoes -26.3601
7
root 1.85956 17.2368 22.3168 -551.96 -47.0409 -180.638
lowerback 10.89 -1.54915 0.798534
upperback 9.52454 -2.84001 -1.05891
thorax 3.78246 -1.71483 -1.3631
lowerneck 9.40481 -15.3765 -14.1769
upperneck -7.25382 -21.5407 21.5079
head 0.338411 -11.4735 8.58671
rclavicle 2.08475e-014 -2.18663e-015
rhumerus -33.4338 6.89688 -93.0234
rradius 39.022
rwrist -5.71295
rhand -15.1762 5.60182
rfingers 7.12502
rthumb 10.9948 -24.0903
lclavicle 2.08475e-014 -2.18663e-015
lhumerus -31.2383 21.9667 74.9039
lradius 7.89454
lwrist 0.44555
lhand -9.58432 -7.95113
lfingers 7.12502
lthumb 16.3839 21.3769
rfemur -0.683792 2.74026 25.6731
rtibia 35.983
rfoot -15.4184 -6.2966
rtoes -0.166369
lfemur 4.66545 -8.61221 -15.8707
ltibia 22.4952
lfoot -9.06666 -12.0401
ltoes -24.8931
8
root 1.81721 17.2321 22.3343 -551.928 -46.309 -180.666
lowerback 10.9068 -1.50986 0.643252
upperback 9.58103 -2.81455 -1.07452
thorax 3.84005 -1.71598 -1.29637
lowerneck 9.23457 -15.2084 -14.1469
upperneck -7.28509 -21.2911 21.5483
head 0.314462 -11.3478 8.60544
rclavicle 4.87022e-014 -1.74931e-014
rhumerus -33.4312 6.80115 -92.9469
rradius 38.7072
rwrist -5.77754
rhand -15.1919 5.48237
rfingers 7.12502
rthumb 10.9796 -24.2105
lclavicle 4.87022e-014 -1.74931e-014
lhumerus -31.0496 21.5624 75.0065
lradius 8.40167
lwrist 0.512765
lhand -9.53355 -7.90431
lfingers 7.12502
lthumb 16.4328 21.4197
rfemur -0.815575 3.06776 25.5765
rtibia 36.2937
rfoot -15.5693 -5.92724
rtoes -0.489442
lfemur 4.8557 -8.12746 -15.9019
ltibia 22.4961
lfoot -8.95241 -11.8307
ltoes -22.8811
9
root 1.77538 17.2267 22.3517 -551.889 -45.5899 -180.734
lowerback 10.9654 -1.47272 0.454561
upperback 9.61893 -2.79319 -1.08566
thorax 3.85637 -1.72115 -1.20353
lowerneck 9.04181 -15.047 -14.1298
upperneck -7.23615 -21.057 21.5138
head 0.31207 -11.2219 8.59578
rclavicle 1.73937e-014 1.78906e-015
rhumerus -33.4762 6.76442 -92.8697
rradius 38.3701
rwrist -5.90145
rhand -15.2729 5.37466
rfingers 7.12502
rthumb 10.9015 -24.3223
lclavicle 1.73937e-014 1.78906e-015
lhumerus -30.8372 21.1586 75.1048
lradius 8.84429
lwrist 0.555827
lhand -9.45703 -7.84006
lfingers 7.12502
lthumb 16.5065 21.4778
rfemur -0.9327 3.43423 25.4642
rtibia 36.6301
rfoot -15.7194 -5.58911
rtoes -0.723297
lfemur 5.0654 -7.64362 -15.9737
ltibia 22.5012
lfoot -8.94162 -11.644
ltoes -21.6692
10
root 1.73436 17.2216 22.3688 -551.881 -44.8786 -180.72
lowerback 10.9845 -1.44046 0.315593
upperback 9.66066 -2.77468 -1.06556
thorax 3.89774 -1.72564 -1.10761
lowerneck 8.83318 -14.8893 -14.118
upperneck -7.23509 -20.8204 21.488
head 0.299943 -11.0954 8.59033
rclavicle 8.57756e-014 -3.39922e-014
rhumerus -33.4935 6.73259 -92.751
rradius 38.0328
rwrist -6.06301
rhand -15.2858 5.23082
rfingers 7.12502
rthumb 10.8891 -24.4669
lclavicle 8.57756e-014 -3.39922e-014
lhumerus -30.5929 20.7476 75.217
lradius 9.28665
lwrist 0.576995
lhand -9.45122 -7.79966
lfingers 7.12502
lthumb 16.5121 21.5177
rfemur -1.09443 3.82991 25.4232
rtibia 36.9789
rfoot -15.8707 -5.29782
rtoes -0.950952
lfemur 5.22722 -7.02294 -15.9681
ltibia 22.5351
lfoot -9.09607 -11.5092
ltoes -21.5707
11
root 1.6943 17.2163 22.3837 -551.822 -44.1801 -180.782
lowerback 11.0198 -1.40104 0.112342
upperback 9.6789 -2.74843 -1.05928
thorax 3.90702 -1.72845 -0.989128
lowerneck 8.64413 -14.7268 -14.1375
upperneck -7.18984 -20.5883 21.4611
head 0.301345 -10.97 8.5878
rclavicle -1.67973e-014 -4.37326e-015
rhumerus -33.536 6.58624 -92.5931
rradius 37.6448
rwrist -6.07277
rhand -15.2163 5.07882
rfingers 7.12502
rthumb 10.9562 -24.6153
lclavicle -1.67973e-014 -4.37326e-015
lhumerus -30.3802 20.2921 75.2732
lradius 9.76153
lwrist 0.574011
lhand -9.41462 -7.7073
lfingers 7.12502
lthumb 16.5473 21.6072
rfemur -1.26281 4.17777 25.3232
rtibia 37.3449
rfoot -16.0152 -4.98355
rtoes -1.36614
lfemur 5.39187 -6.36795 -16.0157
ltibia 22.585
lfoot -9.27794 -11.4104
ltoes -21.7209
12
root 1.65473 17.21 22.3974 -551.8 -43.4978 -180.835
lowerback 11.0597 -1.35765 -0.104343
upperback 9.72473 -2.72266 -1.03436
thorax 3.94484 -1.73467 -0.844722
lowerneck 8.41338 -14.5853 -14.1537
upperneck -7.14027 -20.3778 21.3917
head 0.309338 -10.8508 8.56578
rclavicle -9.56651e-014 7.35503e-015
rhumerus -33.5934 6.47942 -92.3995
rradius 37.2717
rwrist -6.0706
rhand -15.1585 4.96043
rfingers 7.12502
rthumb 11.0118 -24.7307
lclavicle -9.56651e-014 7.35503e-015
lhumerus -30.0667 19.8516 75.3796
lradius 10.1525
lwrist 0.54274
lhand -9.45905 -7.63992
lfingers 7.12502
lthumb 16.5045 21.6781
rfemur -1.40985 4.48391 25.2199
rtibia 37.7213
rfoot -16.139 -4.64391
rtoes -1.6409
lfemur 5.58259 -5.68531 -16.046
ltibia 22.6512
lfoot -9.47129 -11.3658
ltoes -21.7134
13
root 1.61591 17.2053 22.4115 -551.754 -42.8184 -180.898
lowerback 11.124 -1.315 -0.30543
upperback 9.73846 -2.6929 -1.02102
thorax 3.93367 -1.7362 -0.719025
lowerneck 8.16335 -14.4356 -14.2162
upperneck -7.0239 -20.1697 21.3609
head 0.349505 -10.7314 8.55588
rclavicle 9.52179e-014 -2.127e-014
rhumerus -33.684 6.22612 -92.1817
rradius 36.8407
rwrist -5.86384
rhand -15.0832 4.83724
rfingers 7.12502
rthumb 11.0845 -24.85
lclavicle 9.52179e-014 -2.127e-014
lhumerus -29.487 17.68 76.433
lradius 10.5847
lwrist 2.38606
lhand -9.84318 -7.44888
lfingers 7.12502
lthumb 16.1347 21.8995
rfemur -1.59406 4.79347 25.1012
rtibia 38.1175
rfoot -16.2351 -4.28417
rtoes -1.82811
lfemur 5.75405 -5.10116 -16.1016
ltibia 22.6903
lfoot -9.59649 -11.292
ltoes -21.2049
14
root 1.57659 17.2009 22.4247 -551.735 -42.1624 -180.925
lowerback 11.1608 -1.29175 -0.465635
upperback 9.76447 -2.68687 -1.00226
thorax 3.94909 -1.74791 -0.610391
lowerneck 7.94769 -14.2796 -14.3338
upperneck -6.96315 -19.9536 21.3568
head 0.375602 -10.6107 8.56821
rclavicle 1.93318e-014 -2.56432e-014
rhumerus -33.7732 6.02082 -91.9499
rradius 36.3885
rwrist -5.6677
rhand -14.994 4.74349
rfingers 7.12502
rthumb 11.1706 -24.9392
lclavicle 1.93318e-014 -2.56432e-014
lhumerus -28.9672 15.5585 77.3898
lradius 11.076
lwrist 4.18306
lhand -10.2074 -7.26032
lfingers 7.12502
lthumb 15.7839 22.1162
rfemur -1.79198 4.99425 24.984
rtibia 38.5207
rfoot -16.3215 -3.86241
rtoes -2.18567
lfemur 5.92208 -4.55453 -16.1236
ltibia 22.7245
lfoot -9.69405 -11.2795
ltoes -20.1779
15
root 1.53941 17.1968 22.4369 -551.674 -41.5006 -181.018
lowerback 11.2077 -1.25045 -0.704363
upperback 9.80156 -2.66546 -0.978733
thorax 3.97445 -1.75758 -0.454239
lowerneck 7.64709 -14.1419 -14.4419
upperneck -6.8522 -19.7572 21.3243
head 0.429022 -10.4934 8.55874
rclavicle 6.64935e-014 -4.57205e-015
rhumerus -33.8224 5.6759 -91.6576
rradius 35.8839
rwrist -5.27267
rhand -14.9303 4.743
rfingers 7.12502
rthumb 11.232 -24.9363
lclavicle 6.64935e-014 -4.57205e-015
lhumerus -28.4672 13.8186 78.115
lradius 11.5108
lwrist 5.54837
lhand -10.5862 -7.11826
lfingers 7.12502
lthumb 15.4191 22.2867
rfemur -1.99608 5.25276 24.8253
rtibia 38.9346
rfoot -16.4149 -3.46489
rtoes -2.48878
lfemur 6.09035 -4.00937 -16.1997
ltibia 22.7487
lfoot -9.80818 -11.213
ltoes -19.469
